<svg width="35" height="30" viewBox="0 0 35 30" fill="none" xmlns="http://www.w3.org/2000/svg"><path fill-rule="evenodd" clip-rule="evenodd" d="M6.184 7.51a7.51 7.51 0 1 1 15.019 0 7.51 7.51 0 0 1-15.019 0Zm7.51-4.86a4.859 4.859 0 1 0 0 9.718 4.859 4.859 0 0 0 0-9.718ZM0 24.295a6.626 6.626 0 0 1 6.626-6.626h.602c.326 0 .65.051.96.153l1.53.499a12.81 12.81 0 0 0 7.952 0l1.529-.5c.31-.1.634-.152.96-.152h.602a6.626 6.626 0 0 1 6.626 6.626v2.1c0 1.33-.965 2.465-2.278 2.68a70.846 70.846 0 0 1-22.831 0A2.716 2.716 0 0 1 0 26.394v-2.1Zm6.626-3.976a3.975 3.975 0 0 0-3.976 3.976v2.1c0 .031.023.058.055.064a68.196 68.196 0 0 0 21.977 0 .065.065 0 0 0 .054-.065v-2.1a3.975 3.975 0 0 0-3.975-3.975h-.602a.44.44 0 0 0-.137.022l-1.53.5a15.46 15.46 0 0 1-9.598 0l-1.529-.5a.44.44 0 0 0-.137-.022h-.602Z" fill="#3D3D8D"/><path d="M28.712 5.3c.732 0 1.325.594 1.325 1.326v3.092h3.092a1.325 1.325 0 0 1 0 2.65h-3.092v3.092a1.325 1.325 0 1 1-2.65 0v-3.092h-3.092a1.325 1.325 0 0 1 0-2.65h3.092V6.626c0-.732.593-1.325 1.325-1.325Z" fill="#3D3D8D"/></svg>