<svg width="40" height="40" viewBox="0 0 40 40" fill="none" xmlns="http://www.w3.org/2000/svg">
<path d="M8.21987 20C8.21987 19.0242 9.01216 18.2332 9.98951 18.2332H18.2304V10.0056C18.2304 9.02984 19.0227 8.23883 20 8.23883C20.9774 8.23883 21.7697 9.02984 21.7697 10.0056V18.2332H30.0107C30.988 18.2332 31.7803 19.0242 31.7803 20C31.7803 20.9757 30.988 21.7668 30.0107 21.7668H21.7697V29.9944C21.7697 30.9701 20.9774 31.7611 20 31.7611C19.0227 31.7611 18.2304 30.9701 18.2304 29.9944V21.7668H9.98951C9.01216 21.7668 8.21987 20.9757 8.21987 20Z" fill="black"/>
<path fill-rule="evenodd" clip-rule="evenodd" d="M8.94978 0.609677C16.2349 -0.203226 23.7651 -0.203226 31.0502 0.609677C35.3596 1.09053 38.8397 4.47954 39.3466 8.80686C40.2178 16.2436 40.2178 23.7564 39.3466 31.1931C38.8397 35.5205 35.3596 38.9095 31.0502 39.3903C23.7651 40.2032 16.2349 40.2032 8.94978 39.3903C4.6404 38.9095 1.16035 35.5205 0.653405 31.1931C-0.217802 23.7564 -0.217802 16.2436 0.653405 8.80686C1.16035 4.47954 4.6404 1.09053 8.94978 0.609677ZM30.6571 4.12136C23.6332 3.33761 16.3668 3.33761 9.3429 4.12136C6.64259 4.42267 4.48115 6.55044 4.16872 9.21735C3.32947 16.3814 3.32947 23.6186 4.16872 30.7827C4.48115 33.4496 6.64259 35.5773 9.3429 35.8786C16.3668 36.6624 23.6332 36.6624 30.6571 35.8786C33.3574 35.5773 35.5189 33.4496 35.8313 30.7827C36.6705 23.6186 36.6705 16.3814 35.8313 9.21735C35.5189 6.55044 33.3574 4.42267 30.6571 4.12136Z" fill="black"/>
</svg>
