<svg width="18" height="18" viewBox="0 0 18 18" fill="none" xmlns="http://www.w3.org/2000/svg"><path fill-rule="evenodd" clip-rule="evenodd" d="M2.256 6.801a17.216 17.216 0 0 0 8.922 8.663l.012.005.764.34a2.25 2.25 0 0 0 2.74-.737l1.274-1.763a.25.25 0 0 0-.046-.341l-2.225-1.795a.25.25 0 0 0-.357.046l-.866 1.168a.75.75 0 0 1-.912.237 13.388 13.388 0 0 1-6.67-6.67.75.75 0 0 1 .236-.912l1.169-.866a.25.25 0 0 0 .046-.358L4.548 1.593a.25.25 0 0 0-.341-.046l-1.774 1.28a2.25 2.25 0 0 0-.73 2.756L2.254 6.8l.001.001Zm8.33 10.041A18.716 18.716 0 0 1 .892 7.426v-.002l-.555-1.22A3.75 3.75 0 0 1 1.555 1.61L3.33.331a1.75 1.75 0 0 1 2.386.32L7.51 2.876a1.75 1.75 0 0 1-.32 2.505l-.67.496a11.892 11.892 0 0 0 5.118 5.118l.496-.67a1.75 1.75 0 0 1 2.505-.32l2.225 1.795a1.75 1.75 0 0 1 .32 2.387l-1.275 1.764a3.75 3.75 0 0 1-4.566 1.229l-.757-.338Z" fill="#3D3D8D"/></svg>