<svg width="25" height="22" viewBox="0 0 25 22" fill="none" xmlns="http://www.w3.org/2000/svg"><path fill-rule="evenodd" clip-rule="evenodd" d="M12.5 7.813a4.688 4.688 0 1 0 .002 9.376 4.688 4.688 0 0 0-.002-9.376Zm0 10.937a6.25 6.25 0 1 1 0-12.5 6.25 6.25 0 0 1 0 12.5Zm9.375-15.625h-2.344l-.781-1.563C18.29.654 18.05 0 17.187 0H7.813C6.95 0 6.665.745 6.25 1.563l-.781 1.562H3.125A3.125 3.125 0 0 0 0 6.25v12.5c0 1.726 1.4 3.125 3.125 3.125h18.75c1.726 0 3.125-1.4 3.125-3.125V6.25c0-1.726-1.4-3.125-3.125-3.125Z" fill="#2F69EC"/></svg>