<svg width="20" height="20" viewBox="0 0 20 20" fill="none" xmlns="http://www.w3.org/2000/svg"><path fill-rule="evenodd" clip-rule="evenodd" d="M19.168 1.738 18.25.822C17.237-.192 15.187-.31 14.174.704l-4.49 4.49c-.677.677-.58 1.848-.352 2.712l6.125-5.92c.506-.506 1.417.135 1.924.642.507.507 1.148 1.418.642 1.924l-5.94 6.106c.864.227 2.055.345 2.732-.333l4.49-4.49c1.014-1.013.876-3.083-.137-4.097ZM4.552 18.022c-.506.507-1.417-.135-1.924-.641-.507-.507-1.148-1.418-.641-1.925l5.919-6.125c-.864-.228-2.035-.325-2.712.352l-4.49 4.49c-1.014 1.014-.896 3.063.118 4.076l.917.918c1.013 1.013 3.083 1.151 4.096.138l4.49-4.49c.678-.678.56-1.868.333-2.732l-6.106 5.939Zm6.59-10.083a.65.65 0 0 1 .917.918l-3.21 3.21a.65.65 0 0 1-.918-.917l3.21-3.21Z" fill="#000"/></svg>