<svg width="16" height="16" viewBox="0 0 16 16" fill="none" xmlns="http://www.w3.org/2000/svg"><path fill-rule="evenodd" clip-rule="evenodd" d="M4.364 4.364a.727.727 0 0 1-.727-.728V2.91H2.18a.727.727 0 0 0-.727.727v1.455h13.091V3.636a.727.727 0 0 0-.727-.727h-1.454v.727a.727.727 0 1 1-1.455 0V2.91H5.091v.727a.727.727 0 0 1-.727.728Zm6.545-2.909H5.091V.727a.727.727 0 1 0-1.454 0v.728H2.182A2.182 2.182 0 0 0 0 3.637v10.181C0 15.023.977 16 2.182 16h11.636A2.182 2.182 0 0 0 16 13.818V3.637a2.182 2.182 0 0 0-2.182-2.182h-1.454V.727a.727.727 0 1 0-1.455 0v.728ZM1.454 6.546v7.273c0 .401.326.727.727.727h11.637a.727.727 0 0 0 .727-.727V6.546H1.455Zm3.637 2.181a.727.727 0 1 1-1.454 0 .727.727 0 0 1 1.454 0ZM8 9.455A.727.727 0 1 0 8 8a.727.727 0 0 0 0 1.455Zm4.364-.728a.727.727 0 1 1-1.455 0 .727.727 0 0 1 1.455 0Zm-8 4.364a.727.727 0 1 0 0-1.454.727.727 0 0 0 0 1.454Zm4.363-.727a.727.727 0 1 1-1.455 0 .727.727 0 0 1 1.455 0Zm2.91.727a.727.727 0 1 0 0-1.454.727.727 0 0 0 0 1.454Z" fill="#000"/></svg>