<svg width="16" height="19" viewBox="0 0 16 19" fill="none" xmlns="http://www.w3.org/2000/svg">
<path d="M5.53217 6.43587C5.53217 5.33131 6.4276 4.43587 7.53217 4.43587C8.63673 4.43587 9.53217 5.33131 9.53217 6.43587C9.53217 7.54044 8.63673 8.43587 7.53217 8.43587C6.4276 8.43587 5.53217 7.54044 5.53217 6.43587Z" fill="#3D3D8D"/>
<path d="M6.53217 9.93587C4.87531 9.93587 3.53217 11.279 3.53217 12.9359C3.53217 13.4882 3.97988 13.9359 4.53217 13.9359H10.5322C11.0844 13.9359 11.5322 13.4882 11.5322 12.9359C11.5322 11.279 10.189 9.93587 8.53217 9.93587H6.53217Z" fill="#3D3D8D"/>
<path fill-rule="evenodd" clip-rule="evenodd" d="M3.07569 0.318556C6.0315 -0.106185 9.03285 -0.106185 11.9887 0.318556C13.4541 0.529144 14.5832 1.71853 14.7174 3.19299L14.8443 4.58872C15.1377 7.8135 15.1377 11.0583 14.8443 14.283L14.7174 15.6788C14.5832 17.1532 13.4541 18.3426 11.9887 18.5532C9.03285 18.9779 6.0315 18.9779 3.07569 18.5532C1.6102 18.3426 0.48111 17.1532 0.346981 15.6788L0.220014 14.283C-0.0733379 11.0583 -0.0733381 7.8135 0.220014 4.58872L0.346981 3.19299C0.48111 1.71854 1.6102 0.529144 3.07569 0.318556ZM11.7753 1.80331C8.961 1.3989 6.10334 1.3989 3.28905 1.80331C2.51126 1.91507 1.912 2.54633 1.84081 3.32888L1.71385 4.72462C1.42872 7.85898 1.42872 11.0128 1.71385 14.1471L1.84081 15.5429C1.912 16.3254 2.51125 16.9567 3.28905 17.0684C6.10334 17.4729 8.961 17.4729 11.7753 17.0684C12.5531 16.9567 13.1523 16.3254 13.2235 15.5429L13.3505 14.1471C13.6356 11.0128 13.6356 7.85898 13.3505 4.72461L13.2235 3.32888C13.1523 2.54633 12.5531 1.91507 11.7753 1.80331Z" fill="#3D3D8D"/>
</svg>
