<svg width="30" height="30" viewBox="0 0 30 30" fill="none" xmlns="http://www.w3.org/2000/svg"><path d="M4.286 0A4.297 4.297 0 0 0 0 4.286v3.571a.714.714 0 1 0 1.429 0V4.286a2.847 2.847 0 0 1 2.857-2.857h3.571a.714.714 0 1 0 0-1.429H4.286Zm17.857 0a.714.714 0 1 0 0 1.429h3.571a2.847 2.847 0 0 1 2.857 2.857v3.571a.713.713 0 1 0 1.429 0V4.286A4.297 4.297 0 0 0 25.714 0h-3.571ZM8.56 9.99a.714.714 0 0 0-.703.724v2.143a.714.714 0 1 0 1.429 0v-2.143a.714.714 0 0 0-.726-.724Zm7.143 0a.714.714 0 0 0-.703.724v5.715c0 .403-.31.714-.714.714h-.715a.715.715 0 1 0 0 1.428h.715a2.154 2.154 0 0 0 2.143-2.142v-5.715a.714.714 0 0 0-.726-.724Zm5.714 0a.714.714 0 0 0-.703.724v2.143a.713.713 0 0 0 1.223.512.714.714 0 0 0 .206-.512v-2.143a.712.712 0 0 0-.726-.724ZM.703 20.704a.715.715 0 0 0-.703.724v4.286A4.297 4.297 0 0 0 4.286 30h3.571a.713.713 0 1 0 0-1.429H4.286a2.847 2.847 0 0 1-2.857-2.857V21.43a.714.714 0 0 0-.726-.724Zm18.576 0a.714.714 0 0 0-.498.22s-.257.265-.886.58c-.63.314-1.585.639-2.895.639s-2.266-.325-2.895-.64c-.629-.314-.886-.58-.886-.58a.713.713 0 0 0-1.173.23.714.714 0 0 0 .163.78s.458.449 1.257.849c.8.4 1.986.79 3.534.79 1.548 0 2.734-.39 3.534-.79.8-.4 1.257-.848 1.257-.848a.715.715 0 0 0-.512-1.23Zm9.995 0a.715.715 0 0 0-.703.724v4.286a2.847 2.847 0 0 1-2.857 2.857h-3.571a.713.713 0 0 0-.512 1.223.713.713 0 0 0 .512.206h3.571A4.297 4.297 0 0 0 30 25.714V21.43a.713.713 0 0 0-.726-.724Z" fill="#03A9F4"/></svg>