<svg width="49" height="59" viewBox="0 0 49 59" fill="none" xmlns="http://www.w3.org/2000/svg">
<path d="M39.9434 41.7021V29.1045C39.9434 28.1605 39.7725 27.3467 39.4307 26.6631C39.0889 25.9795 38.568 25.4505 37.8682 25.0762C37.1846 24.7018 36.3219 24.5146 35.2803 24.5146C34.32 24.5146 33.4899 24.6774 32.79 25.0029C32.0902 25.3285 31.5449 25.7679 31.1543 26.3213C30.7637 26.8747 30.5684 27.5013 30.5684 28.2012H24.709C24.709 27.1595 24.9613 26.1504 25.4658 25.1738C25.9704 24.1973 26.7028 23.3265 27.6631 22.5615C28.6234 21.7965 29.7708 21.1943 31.1055 20.7549C32.4401 20.3154 33.9375 20.0957 35.5977 20.0957C37.5833 20.0957 39.3411 20.4294 40.8711 21.0967C42.4173 21.764 43.6299 22.7731 44.5088 24.124C45.404 25.4587 45.8516 27.1351 45.8516 29.1533V40.8965C45.8516 42.1009 45.9329 43.1833 46.0957 44.1436C46.2747 45.0876 46.527 45.9095 46.8525 46.6094V47H40.8223C40.5456 46.3652 40.3258 45.5596 40.1631 44.583C40.0166 43.5902 39.9434 42.6299 39.9434 41.7021ZM40.7979 30.9355L40.8467 34.5732H36.623C35.5326 34.5732 34.5723 34.679 33.7422 34.8906C32.9121 35.0859 32.2204 35.3789 31.667 35.7695C31.1136 36.1602 30.6986 36.6322 30.4219 37.1855C30.1452 37.7389 30.0068 38.3656 30.0068 39.0654C30.0068 39.7653 30.1696 40.4082 30.4951 40.9941C30.8206 41.5638 31.2926 42.0114 31.9111 42.3369C32.5459 42.6624 33.3109 42.8252 34.2061 42.8252C35.4105 42.8252 36.4603 42.5811 37.3555 42.0928C38.2669 41.5882 38.9831 40.9779 39.5039 40.2617C40.0247 39.5293 40.3014 38.8376 40.334 38.1865L42.2383 40.7988C42.043 41.4661 41.7093 42.1823 41.2373 42.9473C40.7653 43.7122 40.1468 44.4447 39.3818 45.1445C38.6331 45.8281 37.7298 46.3896 36.6719 46.8291C35.6302 47.2686 34.4258 47.4883 33.0586 47.4883C31.3333 47.4883 29.7952 47.1465 28.4443 46.4629C27.0934 45.763 26.0355 44.8271 25.2705 43.6553C24.5055 42.4671 24.123 41.1243 24.123 39.627C24.123 38.2272 24.3835 36.9902 24.9043 35.916C25.4414 34.8255 26.2227 33.9141 27.248 33.1816C28.2897 32.4492 29.5592 31.8958 31.0566 31.5215C32.554 31.1309 34.263 30.9355 36.1836 30.9355H40.7979Z" fill="#153E9A"/>
<line x1="16" y1="7" x2="16" y2="47" stroke="#153E9A" stroke-width="6"/>
<line x1="3" y1="22" x2="3" y2="47" stroke="#153E9A" stroke-width="6"/>
<circle cx="3" cy="17" r="3" fill="#EF3942"/>
<path d="M2.32308 55.0684C2.04964 55.0684 1.80241 55.0239 1.58138 54.9351C1.36263 54.8439 1.17578 54.7174 1.02083 54.5557C0.868165 54.3939 0.750814 54.2036 0.668783 53.9849C0.586752 53.7661 0.545736 53.5303 0.545736 53.2773V53.1406C0.545736 52.8512 0.587891 52.5892 0.672201 52.3545C0.756511 52.1198 0.873861 51.9193 1.02425 51.7529C1.17464 51.5843 1.35238 51.4556 1.55746 51.3667C1.76253 51.2778 1.9847 51.2334 2.22396 51.2334C2.48828 51.2334 2.71956 51.2778 2.91781 51.3667C3.11605 51.4556 3.28011 51.5809 3.40999 51.7427C3.54216 51.9022 3.64014 52.0924 3.70394 52.3135C3.77002 52.5345 3.80306 52.7783 3.80306 53.0449V53.397H0.945639V52.8057H2.98958V52.7407C2.98503 52.5926 2.9554 52.4536 2.90072 52.3237C2.84831 52.1938 2.76742 52.089 2.65804 52.0093C2.54867 51.9295 2.40283 51.8896 2.22054 51.8896C2.08382 51.8896 1.96191 51.9193 1.85482 51.9785C1.75 52.0355 1.66227 52.1187 1.59163 52.228C1.521 52.3374 1.46631 52.4696 1.42757 52.6245C1.39111 52.7772 1.37288 52.9492 1.37288 53.1406V53.2773C1.37288 53.4391 1.39453 53.5895 1.43783 53.7285C1.4834 53.8652 1.54948 53.9849 1.63607 54.0874C1.72266 54.1899 1.82747 54.2708 1.95052 54.3301C2.07357 54.387 2.21371 54.4155 2.37093 54.4155C2.56917 54.4155 2.74577 54.3757 2.90072 54.2959C3.05566 54.2161 3.1901 54.1034 3.30404 53.9575L3.73812 54.3779C3.65837 54.4941 3.55469 54.6058 3.42708 54.7129C3.29948 54.8177 3.14339 54.9032 2.95882 54.9692C2.77653 55.0353 2.56462 55.0684 2.32308 55.0684ZM6.36816 54.2344V49.75H7.19531V55H6.44678L6.36816 54.2344ZM3.96191 53.1919V53.1201C3.96191 52.8398 3.99496 52.5846 4.06104 52.3545C4.12712 52.1221 4.22282 51.9227 4.34815 51.7563C4.47347 51.5877 4.62614 51.459 4.80615 51.3701C4.98617 51.279 5.18897 51.2334 5.41455 51.2334C5.63786 51.2334 5.83382 51.2767 6.00244 51.3633C6.17106 51.4499 6.31462 51.5741 6.43311 51.7358C6.5516 51.8953 6.64616 52.0868 6.7168 52.3101C6.78744 52.5311 6.83757 52.7772 6.86719 53.0483V53.2773C6.83757 53.5417 6.78744 53.7832 6.7168 54.002C6.64616 54.2207 6.5516 54.4098 6.43311 54.5693C6.31462 54.7288 6.16992 54.8519 5.99902 54.9385C5.8304 55.0251 5.6333 55.0684 5.40772 55.0684C5.18441 55.0684 4.98275 55.0216 4.80274 54.9282C4.625 54.8348 4.47347 54.7038 4.34815 54.5352C4.22282 54.3665 4.12712 54.1683 4.06104 53.9404C3.99496 53.7103 3.96191 53.4608 3.96191 53.1919ZM4.78565 53.1201V53.1919C4.78565 53.3605 4.80046 53.5177 4.83008 53.6636C4.86198 53.8094 4.91097 53.9382 4.97705 54.0498C5.04313 54.1592 5.12858 54.2458 5.2334 54.3096C5.3405 54.3711 5.4681 54.4019 5.61621 54.4019C5.80306 54.4019 5.95687 54.3608 6.07764 54.2788C6.19841 54.1968 6.29297 54.0863 6.36133 53.9473C6.43197 53.806 6.47982 53.6488 6.50488 53.4756V52.8569C6.49121 52.7225 6.46273 52.5972 6.41943 52.481C6.37842 52.3647 6.32259 52.2633 6.25195 52.1768C6.18132 52.0879 6.09359 52.0195 5.98877 51.9717C5.88623 51.9215 5.76432 51.8965 5.62305 51.8965C5.47266 51.8965 5.34505 51.9284 5.24024 51.9922C5.13542 52.056 5.04883 52.1437 4.98047 52.2554C4.91439 52.367 4.8654 52.4969 4.8335 52.645C4.8016 52.7931 4.78565 52.9515 4.78565 53.1201ZM9.94841 54.1284V51.3018H10.7756V55H9.99626L9.94841 54.1284ZM10.0646 53.3594L10.3415 53.3525C10.3415 53.6009 10.3141 53.8299 10.2594 54.0396C10.2048 54.2469 10.1204 54.4281 10.0065 54.583C9.89258 54.7357 9.74675 54.8553 9.56901 54.9419C9.39128 55.0262 9.17822 55.0684 8.92985 55.0684C8.74984 55.0684 8.58464 55.0422 8.43425 54.9897C8.28385 54.9373 8.15397 54.8564 8.0446 54.7471C7.9375 54.6377 7.85433 54.4953 7.79509 54.3198C7.73584 54.1444 7.70622 53.9347 7.70622 53.6909V51.3018H8.52995V53.6978C8.52995 53.8322 8.5459 53.945 8.5778 54.0361C8.6097 54.125 8.653 54.1968 8.70768 54.2515C8.76237 54.3062 8.82617 54.3449 8.89909 54.3677C8.97201 54.3905 9.04948 54.4019 9.13151 54.4019C9.36621 54.4019 9.55078 54.3563 9.68522 54.2651C9.82194 54.1717 9.91878 54.0464 9.97575 53.8892C10.035 53.7319 10.0646 53.5553 10.0646 53.3594ZM12.7972 54.4121C12.9316 54.4121 13.0524 54.3859 13.1595 54.3335C13.2689 54.2788 13.3566 54.2036 13.4227 54.1079C13.491 54.0122 13.5286 53.9017 13.5355 53.7764H14.3114C14.3068 54.0156 14.2362 54.2332 14.0994 54.4292C13.9627 54.6252 13.7816 54.7812 13.556 54.8975C13.3304 55.0114 13.0809 55.0684 12.8075 55.0684C12.5249 55.0684 12.2788 55.0205 12.0692 54.9248C11.8595 54.8268 11.6852 54.6924 11.5462 54.5215C11.4072 54.3506 11.3024 54.1535 11.2318 53.9302C11.1634 53.7069 11.1292 53.4676 11.1292 53.2124V53.0928C11.1292 52.8376 11.1634 52.5983 11.2318 52.375C11.3024 52.1494 11.4072 51.9512 11.5462 51.7803C11.6852 51.6094 11.8595 51.4761 12.0692 51.3804C12.2788 51.2824 12.5238 51.2334 12.804 51.2334C13.1003 51.2334 13.36 51.2926 13.5833 51.4111C13.8066 51.5273 13.9821 51.6903 14.1097 51.8999C14.2396 52.1073 14.3068 52.3488 14.3114 52.6245H13.5355C13.5286 52.4878 13.4945 52.3647 13.4329 52.2554C13.3737 52.1437 13.2894 52.0549 13.18 51.9888C13.0729 51.9227 12.9442 51.8896 12.7938 51.8896C12.6274 51.8896 12.4896 51.9238 12.3802 51.9922C12.2708 52.0583 12.1854 52.1494 12.1239 52.2656C12.0623 52.3796 12.0179 52.5083 11.9906 52.6519C11.9655 52.7931 11.953 52.9401 11.953 53.0928V53.2124C11.953 53.3651 11.9655 53.5132 11.9906 53.6567C12.0156 53.8003 12.0589 53.929 12.1204 54.043C12.1842 54.1546 12.2708 54.2446 12.3802 54.313C12.4896 54.3791 12.6286 54.4121 12.7972 54.4121ZM16.6953 54.2583V52.4946C16.6953 52.3625 16.6714 52.2485 16.6235 52.1528C16.5757 52.0571 16.5028 51.9831 16.4048 51.9307C16.3091 51.8783 16.1883 51.8521 16.0425 51.8521C15.908 51.8521 15.7918 51.8748 15.6938 51.9204C15.5959 51.966 15.5195 52.0275 15.4648 52.105C15.4102 52.1825 15.3828 52.2702 15.3828 52.3682H14.5625C14.5625 52.2223 14.5978 52.0811 14.6685 51.9443C14.7391 51.8076 14.8416 51.6857 14.9761 51.5786C15.1105 51.4715 15.2712 51.3872 15.458 51.3257C15.6449 51.2642 15.8545 51.2334 16.0869 51.2334C16.3649 51.2334 16.611 51.2801 16.8252 51.3735C17.0417 51.467 17.2114 51.6082 17.3345 51.7974C17.4598 51.9842 17.5225 52.2189 17.5225 52.5015V54.1455C17.5225 54.3141 17.5339 54.4657 17.5566 54.6001C17.5817 54.7323 17.617 54.8473 17.6626 54.9453V55H16.8184C16.7796 54.9111 16.7489 54.7983 16.7261 54.6616C16.7056 54.5226 16.6953 54.3882 16.6953 54.2583ZM16.8149 52.751L16.8218 53.2603H16.2305C16.0778 53.2603 15.9434 53.2751 15.8271 53.3047C15.7109 53.332 15.6141 53.373 15.5366 53.4277C15.4591 53.4824 15.401 53.5485 15.3623 53.626C15.3236 53.7035 15.3042 53.7912 15.3042 53.8892C15.3042 53.9871 15.327 54.0771 15.3726 54.1592C15.4181 54.2389 15.4842 54.3016 15.5708 54.3472C15.6597 54.3927 15.7668 54.4155 15.8921 54.4155C16.0607 54.4155 16.2077 54.3813 16.333 54.313C16.4606 54.2424 16.5609 54.1569 16.6338 54.0566C16.7067 53.9541 16.7454 53.8573 16.75 53.7661L17.0166 54.1318C16.9893 54.2253 16.9425 54.3255 16.8765 54.4326C16.8104 54.5397 16.7238 54.6423 16.6167 54.7402C16.5119 54.8359 16.3854 54.9146 16.2373 54.9761C16.0915 55.0376 15.9229 55.0684 15.7314 55.0684C15.4899 55.0684 15.2746 55.0205 15.0855 54.9248C14.8963 54.8268 14.7482 54.6958 14.6411 54.5317C14.534 54.3654 14.4805 54.1774 14.4805 53.9678C14.4805 53.7718 14.5169 53.5986 14.5898 53.4482C14.665 53.2956 14.7744 53.168 14.918 53.0654C15.0638 52.9629 15.2415 52.8854 15.4512 52.833C15.6608 52.7783 15.9001 52.751 16.1689 52.751H16.8149ZM19.7458 51.3018V51.9033H17.6608V51.3018H19.7458ZM18.2624 50.396H19.0861V53.978C19.0861 54.092 19.1021 54.1797 19.134 54.2412C19.1681 54.3005 19.2148 54.3403 19.2741 54.3608C19.3333 54.3813 19.4028 54.3916 19.4826 54.3916C19.5396 54.3916 19.5942 54.3882 19.6466 54.3813C19.6991 54.3745 19.7412 54.3677 19.7731 54.3608L19.7765 54.9897C19.7082 55.0103 19.6284 55.0285 19.5373 55.0444C19.4484 55.0604 19.3459 55.0684 19.2297 55.0684C19.0405 55.0684 18.873 55.0353 18.7272 54.9692C18.5814 54.9009 18.4674 54.7904 18.3854 54.6377C18.3034 54.485 18.2624 54.2822 18.2624 54.0293V50.396ZM20.93 51.3018V55H20.1029V51.3018H20.93ZM20.0482 50.3311C20.0482 50.2057 20.0892 50.1021 20.1712 50.02C20.2555 49.9357 20.3717 49.8936 20.5199 49.8936C20.6657 49.8936 20.7808 49.9357 20.8651 50.02C20.9494 50.1021 20.9915 50.2057 20.9915 50.3311C20.9915 50.4541 20.9494 50.5566 20.8651 50.6387C20.7808 50.7207 20.6657 50.7617 20.5199 50.7617C20.3717 50.7617 20.2555 50.7207 20.1712 50.6387C20.0892 50.5566 20.0482 50.4541 20.0482 50.3311ZM21.3418 53.1919V53.1133C21.3418 52.8467 21.3805 52.5994 21.458 52.3716C21.5355 52.1414 21.6471 51.9421 21.793 51.7734C21.9411 51.6025 22.1211 51.4704 22.333 51.377C22.5472 51.2812 22.7887 51.2334 23.0576 51.2334C23.3288 51.2334 23.5703 51.2812 23.7822 51.377C23.9964 51.4704 24.1776 51.6025 24.3257 51.7734C24.4738 51.9421 24.5866 52.1414 24.6641 52.3716C24.7415 52.5994 24.7803 52.8467 24.7803 53.1133V53.1919C24.7803 53.4585 24.7415 53.7057 24.6641 53.9336C24.5866 54.1615 24.4738 54.3608 24.3257 54.5317C24.1776 54.7004 23.9976 54.8325 23.7856 54.9282C23.5737 55.0216 23.3333 55.0684 23.0645 55.0684C22.7933 55.0684 22.5506 55.0216 22.3364 54.9282C22.1245 54.8325 21.9445 54.7004 21.7964 54.5317C21.6483 54.3608 21.5355 54.1615 21.458 53.9336C21.3805 53.7057 21.3418 53.4585 21.3418 53.1919ZM22.1655 53.1133V53.1919C22.1655 53.3582 22.1826 53.5155 22.2168 53.6636C22.251 53.8117 22.3045 53.9416 22.3774 54.0532C22.4504 54.1649 22.5438 54.2526 22.6577 54.3164C22.7716 54.3802 22.9072 54.4121 23.0645 54.4121C23.2171 54.4121 23.3493 54.3802 23.4609 54.3164C23.5749 54.2526 23.6683 54.1649 23.7412 54.0532C23.8141 53.9416 23.8677 53.8117 23.9019 53.6636C23.9383 53.5155 23.9565 53.3582 23.9565 53.1919V53.1133C23.9565 52.9492 23.9383 52.7943 23.9019 52.6484C23.8677 52.5003 23.813 52.3693 23.7378 52.2554C23.6649 52.1414 23.5715 52.0526 23.4575 51.9888C23.3459 51.9227 23.2126 51.8896 23.0576 51.8896C22.9027 51.8896 22.7682 51.9227 22.6543 51.9888C22.5426 52.0526 22.4504 52.1414 22.3774 52.2554C22.3045 52.3693 22.251 52.5003 22.2168 52.6484C22.1826 52.7943 22.1655 52.9492 22.1655 53.1133ZM25.9543 52.0913V55H25.1305V51.3018H25.9064L25.9543 52.0913ZM25.8073 53.0142L25.5407 53.0107C25.543 52.7487 25.5794 52.5083 25.6501 52.2896C25.723 52.0708 25.8232 51.8828 25.9508 51.7256C26.0807 51.5684 26.2357 51.4476 26.4157 51.3633C26.5957 51.2767 26.7962 51.2334 27.0173 51.2334C27.195 51.2334 27.3556 51.2585 27.4992 51.3086C27.645 51.3564 27.7692 51.4351 27.8717 51.5444C27.9766 51.6538 28.0563 51.7962 28.111 51.9717C28.1657 52.1449 28.193 52.3579 28.193 52.6108V55H27.3659V52.6074C27.3659 52.4297 27.3397 52.2896 27.2873 52.187C27.2371 52.0822 27.1631 52.0081 27.0651 51.9648C26.9694 51.9193 26.8498 51.8965 26.7062 51.8965C26.5649 51.8965 26.4385 51.9261 26.3268 51.9854C26.2152 52.0446 26.1206 52.1255 26.0431 52.228C25.9679 52.3306 25.9098 52.4491 25.8688 52.5835C25.8278 52.7179 25.8073 52.8615 25.8073 53.0142ZM31.2246 55H30.4009V50.9463C30.4009 50.6706 30.4521 50.4393 30.5547 50.2524C30.6595 50.0633 30.8088 49.9209 31.0024 49.8252C31.1961 49.7272 31.4251 49.6782 31.6895 49.6782C31.7715 49.6782 31.8524 49.6839 31.9321 49.6953C32.0119 49.7044 32.0894 49.7192 32.1646 49.7397L32.144 50.3755C32.0985 50.3641 32.0483 50.3561 31.9937 50.3516C31.9412 50.347 31.8843 50.3447 31.8228 50.3447C31.6974 50.3447 31.5892 50.3687 31.498 50.4165C31.4092 50.4621 31.3408 50.5293 31.293 50.6182C31.2474 50.707 31.2246 50.8164 31.2246 50.9463V55ZM31.9868 51.3018V51.9033H29.8335V51.3018H31.9868ZM32.0944 53.1919V53.1133C32.0944 52.8467 32.1331 52.5994 32.2106 52.3716C32.2881 52.1414 32.3997 51.9421 32.5456 51.7734C32.6937 51.6025 32.8737 51.4704 33.0856 51.377C33.2998 51.2812 33.5413 51.2334 33.8102 51.2334C34.0814 51.2334 34.3229 51.2812 34.5348 51.377C34.749 51.4704 34.9302 51.6025 35.0783 51.7734C35.2264 51.9421 35.3392 52.1414 35.4167 52.3716C35.4941 52.5994 35.5329 52.8467 35.5329 53.1133V53.1919C35.5329 53.4585 35.4941 53.7057 35.4167 53.9336C35.3392 54.1615 35.2264 54.3608 35.0783 54.5317C34.9302 54.7004 34.7502 54.8325 34.5382 54.9282C34.3263 55.0216 34.0859 55.0684 33.8171 55.0684C33.5459 55.0684 33.3032 55.0216 33.089 54.9282C32.8771 54.8325 32.6971 54.7004 32.549 54.5317C32.4009 54.3608 32.2881 54.1615 32.2106 53.9336C32.1331 53.7057 32.0944 53.4585 32.0944 53.1919ZM32.9181 53.1133V53.1919C32.9181 53.3582 32.9352 53.5155 32.9694 53.6636C33.0036 53.8117 33.0571 53.9416 33.13 54.0532C33.203 54.1649 33.2964 54.2526 33.4103 54.3164C33.5243 54.3802 33.6598 54.4121 33.8171 54.4121C33.9697 54.4121 34.1019 54.3802 34.2135 54.3164C34.3275 54.2526 34.4209 54.1649 34.4938 54.0532C34.5667 53.9416 34.6203 53.8117 34.6545 53.6636C34.6909 53.5155 34.7091 53.3582 34.7091 53.1919V53.1133C34.7091 52.9492 34.6909 52.7943 34.6545 52.6484C34.6203 52.5003 34.5656 52.3693 34.4904 52.2554C34.4175 52.1414 34.3241 52.0526 34.2101 51.9888C34.0985 51.9227 33.9652 51.8896 33.8102 51.8896C33.6553 51.8896 33.5208 51.9227 33.4069 51.9888C33.2952 52.0526 33.203 52.1414 33.13 52.2554C33.0571 52.3693 33.0036 52.5003 32.9694 52.6484C32.9352 52.7943 32.9181 52.9492 32.9181 53.1133ZM36.7171 52.0059V55H35.8934V51.3018H36.6795L36.7171 52.0059ZM37.8485 51.2778L37.8416 52.0435C37.7915 52.0343 37.7368 52.0275 37.6776 52.0229C37.6206 52.0184 37.5636 52.0161 37.5067 52.0161C37.3654 52.0161 37.2412 52.0366 37.1341 52.0776C37.027 52.1164 36.937 52.1733 36.8641 52.2485C36.7935 52.3215 36.7388 52.4103 36.7 52.5151C36.6613 52.62 36.6385 52.7373 36.6317 52.8672L36.4437 52.8809C36.4437 52.6484 36.4665 52.4331 36.512 52.2349C36.5576 52.0366 36.626 51.8623 36.7171 51.7119C36.8105 51.5615 36.9268 51.4442 37.0658 51.3599C37.207 51.2756 37.37 51.2334 37.5545 51.2334C37.6047 51.2334 37.6582 51.238 37.7152 51.2471C37.7744 51.2562 37.8189 51.2664 37.8485 51.2778ZM40.3229 49.75V55H39.4958V49.75H40.3229ZM41.7738 51.3018V55H40.9466V51.3018H41.7738ZM40.8919 50.3311C40.8919 50.2057 40.9329 50.1021 41.015 50.02C41.0993 49.9357 41.2155 49.8936 41.3636 49.8936C41.5094 49.8936 41.6245 49.9357 41.7088 50.02C41.7931 50.1021 41.8353 50.2057 41.8353 50.3311C41.8353 50.4541 41.7931 50.5566 41.7088 50.6387C41.6245 50.7207 41.5094 50.7617 41.3636 50.7617C41.2155 50.7617 41.0993 50.7207 41.015 50.6387C40.9329 50.5566 40.8919 50.4541 40.8919 50.3311ZM43.457 55H42.6333V50.9463C42.6333 50.6706 42.6846 50.4393 42.7871 50.2524C42.8919 50.0633 43.0412 49.9209 43.2349 49.8252C43.4285 49.7272 43.6576 49.6782 43.9219 49.6782C44.0039 49.6782 44.0848 49.6839 44.1646 49.6953C44.2443 49.7044 44.3218 49.7192 44.397 49.7397L44.3765 50.3755C44.3309 50.3641 44.2808 50.3561 44.2261 50.3516C44.1737 50.347 44.1167 50.3447 44.0552 50.3447C43.9299 50.3447 43.8216 50.3687 43.7305 50.4165C43.6416 50.4621 43.5732 50.5293 43.5254 50.6182C43.4798 50.707 43.457 50.8164 43.457 50.9463V55ZM44.2192 51.3018V51.9033H42.0659V51.3018H44.2192ZM46.0324 55.0684C45.7589 55.0684 45.5117 55.0239 45.2907 54.9351C45.0719 54.8439 44.8851 54.7174 44.7301 54.5557C44.5775 54.3939 44.4601 54.2036 44.3781 53.9849C44.2961 53.7661 44.255 53.5303 44.255 53.2773V53.1406C44.255 52.8512 44.2972 52.5892 44.3815 52.3545C44.4658 52.1198 44.5832 51.9193 44.7336 51.7529C44.8839 51.5843 45.0617 51.4556 45.2668 51.3667C45.4718 51.2778 45.694 51.2334 45.9333 51.2334C46.1976 51.2334 46.4289 51.2778 46.6271 51.3667C46.8254 51.4556 46.9894 51.5809 47.1193 51.7427C47.2515 51.9022 47.3494 52.0924 47.4132 52.3135C47.4793 52.5345 47.5124 52.7783 47.5124 53.0449V53.397H44.6549V52.8057H46.6989V52.7407C46.6943 52.5926 46.6647 52.4536 46.61 52.3237C46.5576 52.1938 46.4767 52.089 46.3673 52.0093C46.258 51.9295 46.1121 51.8896 45.9298 51.8896C45.7931 51.8896 45.6712 51.9193 45.5641 51.9785C45.4593 52.0355 45.3716 52.1187 45.3009 52.228C45.2303 52.3374 45.1756 52.4696 45.1369 52.6245C45.1004 52.7772 45.0822 52.9492 45.0822 53.1406V53.2773C45.0822 53.4391 45.1038 53.5895 45.1471 53.7285C45.1927 53.8652 45.2588 53.9849 45.3454 54.0874C45.432 54.1899 45.5368 54.2708 45.6598 54.3301C45.7829 54.387 45.923 54.4155 46.0802 54.4155C46.2785 54.4155 46.4551 54.3757 46.61 54.2959C46.765 54.2161 46.8994 54.1034 47.0133 53.9575L47.4474 54.3779C47.3677 54.4941 47.264 54.6058 47.1364 54.7129C47.0088 54.8177 46.8527 54.9032 46.6681 54.9692C46.4858 55.0353 46.2739 55.0684 46.0324 55.0684Z" fill="#153E9A"/>
</svg>
