<svg width="49" height="59" viewBox="0 0 49 59" fill="none" xmlns="http://www.w3.org/2000/svg"><path d="M39.943 41.702V29.105c0-.945-.17-1.758-.512-2.442a3.59 3.59 0 0 0-1.563-1.587c-.683-.374-1.546-.561-2.588-.561-.96 0-1.79.162-2.49.488-.7.325-1.245.765-1.636 1.318a3.18 3.18 0 0 0-.586 1.88H24.71c0-1.041.252-2.05.757-3.027.504-.977 1.237-1.848 2.197-2.613.96-.764 2.108-1.367 3.442-1.806 1.335-.44 2.832-.66 4.493-.66 1.985 0 3.743.334 5.273 1.002 1.546.667 2.759 1.676 3.638 3.027.895 1.335 1.343 3.011 1.343 5.03v11.743c0 1.204.08 2.286.244 3.247.179.944.431 1.766.757 2.465V47h-6.03c-.277-.635-.497-1.44-.66-2.417a19.735 19.735 0 0 1-.22-2.88Zm.855-10.766.049 3.637h-4.224c-1.09 0-2.05.106-2.88.318-.83.195-1.523.488-2.076.879-.553.39-.968.862-1.245 1.415-.277.554-.415 1.18-.415 1.88s.163 1.343.488 1.93a3.433 3.433 0 0 0 1.416 1.342c.635.325 1.4.488 2.295.488 1.204 0 2.254-.244 3.15-.732.91-.505 1.627-1.115 2.148-1.831.52-.733.797-1.424.83-2.075l1.904 2.612c-.195.667-.529 1.383-1 2.148-.473.765-1.091 1.498-1.856 2.197-.749.684-1.652 1.246-2.71 1.685-1.042.44-2.246.66-3.613.66-1.726 0-3.264-.342-4.615-1.026-1.35-.7-2.409-1.636-3.174-2.808-.764-1.188-1.147-2.53-1.147-4.028 0-1.4.26-2.637.781-3.711a7.274 7.274 0 0 1 2.344-2.734c1.042-.733 2.311-1.286 3.809-1.66 1.497-.391 3.206-.586 5.127-.586h4.614Z" fill="#153E9A"/><path stroke="#153E9A" stroke-width="6" d="M16 7v40M3 22v25"/><circle cx="3" cy="17" r="3" fill="#EF3942"/><path d="M2.323 55.068c-.273 0-.52-.044-.742-.133a1.64 1.64 0 0 1-.56-.38 1.683 1.683 0 0 1-.352-.57 2 2 0 0 1-.123-.708v-.136c0-.29.042-.552.126-.786.085-.235.202-.436.352-.602.15-.169.328-.297.533-.386.206-.09.428-.134.667-.134.264 0 .496.045.694.134.198.089.362.214.492.376.132.16.23.35.294.57.066.221.1.465.1.732v.352H.945v-.591H2.99v-.065a1.157 1.157 0 0 0-.09-.417.708.708 0 0 0-.242-.315.726.726 0 0 0-.437-.12.724.724 0 0 0-.629.338c-.071.11-.126.243-.164.398a2.228 2.228 0 0 0-.055.516v.136c0 .162.022.313.065.451.045.137.111.257.198.36a.942.942 0 0 0 .315.242.99.99 0 0 0 .42.086 1.14 1.14 0 0 0 .933-.458l.434.42a1.556 1.556 0 0 1-.78.591c-.181.066-.393.1-.635.1Zm4.045-.834V49.75h.827V55h-.748l-.079-.766Zm-2.406-1.042v-.072c0-.28.033-.535.099-.765.066-.233.162-.432.287-.599.125-.168.278-.297.458-.386.18-.091.383-.137.609-.137.223 0 .419.044.587.13.17.087.313.211.431.373.119.16.213.35.284.574.07.221.12.467.15.738v.23c-.03.264-.08.505-.15.724-.07.219-.165.408-.284.567-.118.16-.263.283-.434.37-.169.086-.366.13-.591.13-.224 0-.425-.047-.605-.14a1.337 1.337 0 0 1-.455-.394 1.851 1.851 0 0 1-.287-.595c-.066-.23-.1-.48-.1-.748Zm.824-.072v.072c0 .169.014.326.044.472.032.145.081.274.147.386.066.11.152.196.256.26a.756.756 0 0 0 .383.092c.187 0 .34-.041.462-.123a.84.84 0 0 0 .283-.332c.071-.141.119-.298.144-.471v-.62a1.51 1.51 0 0 0-.086-.375 1.004 1.004 0 0 0-.167-.304.705.705 0 0 0-.263-.205.824.824 0 0 0-.366-.075.723.723 0 0 0-.383.095.776.776 0 0 0-.26.263 1.295 1.295 0 0 0-.147.39 2.254 2.254 0 0 0-.047.475Zm5.162 1.008v-2.826h.828V55h-.78l-.048-.872Zm.117-.769.277-.007c0 .249-.028.478-.083.688a1.591 1.591 0 0 1-.252.543c-.114.153-.26.272-.438.359a1.48 1.48 0 0 1-.64.126c-.18 0-.344-.026-.495-.078a1.016 1.016 0 0 1-.39-.243 1.104 1.104 0 0 1-.249-.427 1.974 1.974 0 0 1-.089-.63v-2.388h.824v2.396c0 .134.016.247.048.338a.57.57 0 0 0 .13.215.462.462 0 0 0 .191.117c.073.023.15.034.233.034.234 0 .419-.046.553-.137a.756.756 0 0 0 .29-.376c.06-.157.09-.334.09-.53Zm2.732 1.053a.814.814 0 0 0 .362-.078.686.686 0 0 0 .264-.226.617.617 0 0 0 .113-.332h.775c-.004.24-.075.457-.212.653a1.47 1.47 0 0 1-.543.468 1.636 1.636 0 0 1-.748.171c-.283 0-.53-.047-.739-.143a1.46 1.46 0 0 1-.523-.403 1.774 1.774 0 0 1-.314-.592 2.439 2.439 0 0 1-.103-.718v-.12c0-.254.034-.494.103-.717.07-.226.175-.424.314-.595.14-.17.314-.304.523-.4.21-.098.455-.147.735-.147.296 0 .556.06.78.178.223.116.398.28.526.489.13.207.197.449.201.724h-.775a.826.826 0 0 0-.103-.369.677.677 0 0 0-.253-.266.721.721 0 0 0-.386-.1.767.767 0 0 0-.414.103.69.69 0 0 0-.256.274 1.33 1.33 0 0 0-.133.386 2.516 2.516 0 0 0-.038.44v.12c0 .153.013.301.038.445.025.143.068.272.13.386a.74.74 0 0 0 .26.27c.109.066.248.1.416.1Zm3.898-.154v-1.763a.756.756 0 0 0-.072-.342.502.502 0 0 0-.218-.222.748.748 0 0 0-.363-.079.82.82 0 0 0-.348.068.564.564 0 0 0-.23.185.446.446 0 0 0-.081.263h-.82a.92.92 0 0 1 .105-.424c.071-.136.174-.258.308-.365.134-.108.295-.192.482-.253a1.99 1.99 0 0 1 .629-.093c.278 0 .524.047.738.14.217.094.386.235.51.424.125.187.188.422.188.705v1.643c0 .17.01.32.034.455.025.132.06.247.106.345V55h-.845a1.458 1.458 0 0 1-.092-.338 2.764 2.764 0 0 1-.03-.404Zm.12-1.507.007.51h-.591c-.153 0-.288.014-.404.044a.827.827 0 0 0-.29.123.534.534 0 0 0-.233.461c0 .098.023.188.069.27.045.08.111.143.198.188a.698.698 0 0 0 .321.069.907.907 0 0 0 .742-.36.558.558 0 0 0 .116-.29l.267.366a1.251 1.251 0 0 1-.14.3c-.067.108-.153.21-.26.308a1.29 1.29 0 0 1-.886.328 1.41 1.41 0 0 1-.646-.143 1.148 1.148 0 0 1-.444-.393 1.019 1.019 0 0 1-.16-.564c0-.196.036-.37.109-.52.075-.152.184-.28.328-.383.146-.102.324-.18.533-.232.21-.055.45-.082.718-.082h.646Zm2.93-1.45v.602h-2.084v-.601h2.085Zm-1.483-.905h.824v3.582a.58.58 0 0 0 .048.263c.034.06.08.1.14.12.06.02.129.03.209.03a1.255 1.255 0 0 0 .29-.03l.003.629a2.07 2.07 0 0 1-.239.054 1.752 1.752 0 0 1-.307.024c-.19 0-.357-.033-.503-.099a.74.74 0 0 1-.342-.331c-.082-.153-.123-.356-.123-.609v-3.633Zm2.668.906V55h-.827v-3.698h.827Zm-.882-.97c0-.126.041-.23.123-.312a.471.471 0 0 1 .349-.126c.146 0 .26.042.345.126a.416.416 0 0 1 .127.311.412.412 0 0 1-.127.308.474.474 0 0 1-.345.123.479.479 0 0 1-.349-.123.418.418 0 0 1-.123-.308Zm1.294 2.86v-.079c0-.266.039-.514.116-.741.078-.23.19-.43.335-.599.148-.17.328-.303.54-.396.214-.096.456-.144.725-.144.27 0 .512.048.724.144a1.5 1.5 0 0 1 .544.396c.148.17.26.368.338.599.077.227.116.475.116.741v.079c0 .267-.039.514-.116.742-.077.227-.19.427-.338.598-.148.168-.328.3-.54.396a1.77 1.77 0 0 1-.722.14 1.8 1.8 0 0 1-.728-.14 1.567 1.567 0 0 1-.54-.396 1.784 1.784 0 0 1-.338-.598 2.29 2.29 0 0 1-.116-.742Zm.824-.079v.079c0 .166.017.324.05.472a1.2 1.2 0 0 0 .161.39c.073.11.167.199.28.262a.82.82 0 0 0 .407.096.786.786 0 0 0 .397-.096.793.793 0 0 0 .28-.263 1.2 1.2 0 0 0 .16-.39 1.93 1.93 0 0 0 .055-.471v-.079c0-.164-.018-.319-.054-.465a1.194 1.194 0 0 0-.164-.393.783.783 0 0 0-.68-.365.79.79 0 0 0-.404.099.793.793 0 0 0-.277.266 1.24 1.24 0 0 0-.16.393 2.045 2.045 0 0 0-.051.465Zm3.788-1.022V55h-.823v-3.698h.775l.048.79Zm-.147.923-.266-.003a2.35 2.35 0 0 1 .11-.721c.072-.22.172-.407.3-.564a1.33 1.33 0 0 1 .465-.363c.18-.086.38-.13.601-.13.178 0 .339.026.482.076.146.047.27.126.373.235.105.11.184.252.239.428.055.173.082.386.082.639V55h-.827v-2.393a.934.934 0 0 0-.079-.42.44.44 0 0 0-.222-.222.834.834 0 0 0-.359-.069.796.796 0 0 0-.663.332 1.176 1.176 0 0 0-.174.355 1.469 1.469 0 0 0-.062.431ZM31.225 55H30.4v-4.054c0-.275.051-.507.154-.694.105-.189.254-.331.447-.427.194-.098.423-.147.688-.147.081 0 .162.006.242.017.08.01.157.024.233.045l-.021.636a.937.937 0 0 0-.15-.024 1.964 1.964 0 0 0-.171-.007.69.69 0 0 0-.325.072.474.474 0 0 0-.205.201.713.713 0 0 0-.068.328V55Zm.762-3.698v.601h-2.153v-.601h2.153Zm.107 1.89v-.079c0-.266.04-.514.117-.741.077-.23.189-.43.335-.599.148-.17.328-.303.54-.396a1.75 1.75 0 0 1 .724-.144c.271 0 .513.048.725.144.214.093.395.225.543.396.148.17.261.368.339.599.077.227.116.475.116.741v.079c0 .267-.039.514-.116.742-.078.227-.19.427-.339.598-.148.168-.328.3-.54.396a1.77 1.77 0 0 1-.72.14c-.272 0-.515-.046-.729-.14a1.567 1.567 0 0 1-.54-.396 1.784 1.784 0 0 1-.338-.598 2.29 2.29 0 0 1-.117-.742Zm.824-.079v.079c0 .166.017.324.051.472a1.2 1.2 0 0 0 .161.39c.073.11.166.199.28.262a.82.82 0 0 0 .407.096.786.786 0 0 0 .397-.096.793.793 0 0 0 .28-.263 1.2 1.2 0 0 0 .16-.39 1.93 1.93 0 0 0 .055-.471v-.079c0-.164-.018-.319-.055-.465a1.194 1.194 0 0 0-.164-.393.783.783 0 0 0-.68-.365.79.79 0 0 0-.403.099.793.793 0 0 0-.277.266 1.24 1.24 0 0 0-.16.393 1.99 1.99 0 0 0-.052.465Zm3.8-1.107V55h-.825v-3.698h.786l.038.704Zm1.13-.728-.006.766a2.171 2.171 0 0 0-.335-.027c-.142 0-.266.02-.373.06a.703.703 0 0 0-.434.438 1.194 1.194 0 0 0-.068.352l-.188.014c0-.233.023-.448.068-.646.046-.198.114-.373.205-.523.093-.15.21-.268.349-.352a.935.935 0 0 1 .488-.127 1.022 1.022 0 0 1 .294.045Zm2.475-1.528V55h-.827v-5.25h.827Zm1.45 1.552V55h-.826v-3.698h.827Zm-.881-.97c0-.126.04-.23.123-.312a.471.471 0 0 1 .349-.126.47.47 0 0 1 .345.126.416.416 0 0 1 .126.311.412.412 0 0 1-.126.308.474.474 0 0 1-.345.123.479.479 0 0 1-.349-.123.417.417 0 0 1-.123-.308ZM43.457 55h-.824v-4.054c0-.275.052-.507.154-.694.105-.189.254-.331.448-.427.194-.098.423-.147.687-.147.082 0 .163.006.243.017.08.01.157.024.232.045l-.02.636a.938.938 0 0 0-.15-.024 1.963 1.963 0 0 0-.172-.007.69.69 0 0 0-.325.072.473.473 0 0 0-.205.201.713.713 0 0 0-.068.328V55Zm.762-3.698v.601h-2.153v-.601h2.153Zm1.813 3.766c-.273 0-.52-.044-.741-.133a1.64 1.64 0 0 1-.56-.38 1.683 1.683 0 0 1-.353-.57 2 2 0 0 1-.123-.708v-.136c0-.29.042-.552.127-.786.084-.235.201-.436.352-.602.15-.169.328-.297.533-.386.205-.09.427-.134.666-.134.265 0 .496.045.694.134.198.089.362.214.492.376.133.16.23.35.294.57.066.221.1.465.1.732v.352h-2.858v-.591h2.044v-.065a1.158 1.158 0 0 0-.089-.417.708.708 0 0 0-.243-.315.726.726 0 0 0-.437-.12.725.725 0 0 0-.629.338c-.07.11-.125.243-.164.398a2.226 2.226 0 0 0-.055.516v.136c0 .162.022.313.065.451.046.137.112.257.198.36a.942.942 0 0 0 .315.242.991.991 0 0 0 .42.086 1.137 1.137 0 0 0 .933-.458l.434.42a1.556 1.556 0 0 1-.78.591c-.181.066-.393.1-.635.1Z" fill="#153E9A"/></svg>