<svg width="20" height="20" viewBox="0 0 20 20" fill="none" xmlns="http://www.w3.org/2000/svg"><path d="M10 0c.385 0 .698.312.698.698v.93a.698.698 0 0 1-1.396 0v-.93C9.302.312 9.615 0 10 0Zm0 4.651a5.349 5.349 0 1 0 0 10.698A5.349 5.349 0 0 0 10 4.65ZM3.916 2.929a.698.698 0 1 0-.987.987l.658.657a.698.698 0 1 0 .986-.986l-.657-.658ZM20 10a.698.698 0 0 1-.698.698h-.93a.698.698 0 0 1 0-1.396h.93c.386 0 .698.313.698.698Zm-2.929-6.084a.698.698 0 1 0-.987-.987l-.657.658a.698.698 0 0 0 .986.986l.658-.657ZM10 17.674c.385 0 .698.313.698.698v.93a.698.698 0 0 1-1.396 0v-.93c0-.385.313-.698.698-.698Zm6.413-2.247a.698.698 0 0 0-.986.986l.657.658a.698.698 0 0 0 .987-.987l-.658-.657ZM2.326 10a.698.698 0 0 1-.698.698h-.93a.698.698 0 0 1 0-1.396h.93c.385 0 .698.313.698.698Zm2.247 6.413a.698.698 0 0 0-.986-.986l-.658.657a.698.698 0 0 0 .987.987l.657-.658Z" fill="#000"/></svg>