<svg width="17" height="17" viewBox="0 0 17 17" fill="none" xmlns="http://www.w3.org/2000/svg">
<path d="M6.07143 0C3.73141 0 1.82143 1.90998 1.82143 4.25C1.82143 5.71158 2.56658 7.0053 3.69622 7.77072C1.52566 8.69714 0 10.852 0 13.3571H1.21429C1.21429 11.7676 1.98573 10.359 3.16971 9.47238C3.83591 10.3541 4.88661 10.9286 6.07143 10.9286C7.25531 10.9286 8.30567 10.3553 8.97196 9.47475C9.38493 9.78478 9.75188 10.1543 10.0487 10.5776L10.9143 9.71073C10.2762 8.86552 9.41998 8.19896 8.43478 7.77783C9.57083 7.01341 10.3214 5.7165 10.3214 4.25C10.3214 1.90998 8.41145 0 6.07143 0ZM6.07143 1.21429C7.7552 1.21429 9.10714 2.56623 9.10714 4.25C9.10714 5.93377 7.7552 7.28571 6.07143 7.28571C4.38766 7.28571 3.03571 5.93377 3.03571 4.25C3.03571 2.56623 4.38766 1.21429 6.07143 1.21429ZM15.1786 7.89286C14.7232 7.89286 14.2681 8.07524 13.9038 8.43952L8.56048 13.7817L7.89286 17L11.1112 16.3324L16.4533 10.989C16.8176 10.6248 17 10.1696 17 9.71429C17 9.25893 16.8176 8.80381 16.4533 8.43952C16.089 8.07524 15.6339 7.89286 15.1786 7.89286ZM6.07143 8.5C6.72356 8.5 7.34363 8.63308 7.91183 8.86761C7.46756 9.38466 6.81122 9.71429 6.07143 9.71429C5.33012 9.71429 4.67177 9.38412 4.22747 8.86523C4.79649 8.63076 5.41883 8.5 6.07143 8.5ZM15.1786 9.10714C15.3304 9.10714 15.4817 9.16833 15.6031 9.28976C15.846 9.53262 15.846 9.89595 15.6031 10.1388L10.504 15.239L9.47119 15.4217L9.65381 14.3888L14.754 9.28976C14.8755 9.16833 15.0268 9.10714 15.1786 9.10714Z" fill="#3D3D8D"/>
</svg>
