<svg width="27" height="27" viewBox="0 0 27 27" fill="none" xmlns="http://www.w3.org/2000/svg"><path d="M22.85 0c-1.068 0-2 .438-2.594 1.106-.594.668-.867 1.519-.867 2.355 0 .415.068.835.209 1.233l-4.513 3.548c-.546-.36-1.177-.628-1.926-.628-.948 0-1.75.38-2.343.926L6.807 6.251c.047-.238.122-.473.122-.713 0-.837-.274-1.687-.868-2.355-.594-.669-1.526-1.106-2.593-1.106s-2 .437-2.593 1.106C.28 3.85.007 4.7.007 5.538c0 .836.274 1.686.868 2.355.594.668 1.526 1.106 2.593 1.106.948 0 1.75-.381 2.343-.926l4.008 2.288c-.046.239-.121.474-.121.714 0 .837.273 1.687.868 2.355.594.669 1.525 1.106 2.593 1.106 1.067 0 1.999-.437 2.593-1.106.594-.668.868-1.518.868-2.355 0-.415-.07-.834-.21-1.233l4.513-3.547c.546.36 1.177.627 1.927.627 1.067 0 1.998-.438 2.592-1.106.595-.668.869-1.519.869-2.355 0-.836-.274-1.687-.869-2.355C24.85.438 23.918 0 22.85 0Zm0 2.077c.547 0 .827.168 1.04.408.214.24.344.601.344.976s-.13.736-.344.976c-.213.24-.492.408-1.04.408-.515 0-.77-.165-.978-.382a1.034 1.034 0 0 0-.116-.176c-.158-.232-.29-.509-.29-.826 0-.375.129-.736.342-.976.214-.24.494-.408 1.041-.408ZM3.467 4.153c.548 0 .827.168 1.04.409.214.24.344.6.344.976 0 .375-.13.736-.343.976-.214.24-.493.408-1.041.408-.548 0-.828-.168-1.041-.408-.214-.24-.344-.601-.344-.976s.13-.736.344-.976c.213-.24.493-.409 1.04-.409Zm9.69 5.538c.515 0 .77.166.978.382.033.063.072.122.116.176.158.233.291.509.291.826 0 .375-.13.736-.343.976-.214.24-.493.409-1.041.409-.548 0-.828-.168-1.041-.409-.214-.24-.344-.6-.344-.976 0-.375.13-.736.344-.976.213-.24.493-.408 1.04-.408Zm9.687 0a3.48 3.48 0 0 0-3.463 3.465v10.379A3.48 3.48 0 0 0 22.845 27a3.481 3.481 0 0 0 3.466-3.465v-10.38a3.481 3.481 0 0 0-3.466-3.464Zm0 2.076c.78 0 1.389.61 1.389 1.389v10.379c0 .779-.61 1.388-1.389 1.388s-1.387-.609-1.387-1.388v-10.38c0-.778.608-1.387 1.387-1.387Zm-19.381.005A3.479 3.479 0 0 0 0 15.235v8.3A3.48 3.48 0 0 0 3.464 27a3.481 3.481 0 0 0 3.465-3.465v-8.3a3.48 3.48 0 0 0-3.465-3.463Zm0 2.076c.779 0 1.388.608 1.388 1.387v8.3c0 .779-.61 1.388-1.388 1.388a1.37 1.37 0 0 1-1.387-1.388v-8.3a1.37 1.37 0 0 1 1.387-1.387Zm9.695 3.457a3.481 3.481 0 0 0-3.465 3.465v2.765A3.481 3.481 0 0 0 13.159 27a3.481 3.481 0 0 0 3.465-3.465V20.77a3.481 3.481 0 0 0-3.465-3.465Zm0 2.077c.779 0 1.388.609 1.388 1.388v2.765c0 .779-.61 1.388-1.388 1.388-.78 0-1.389-.609-1.389-1.388V20.77c0-.779.61-1.388 1.389-1.388Z" fill="#000"/></svg>