<svg width="19" height="21" viewBox="0 0 19 21" fill="none" xmlns="http://www.w3.org/2000/svg"><path d="M16.004 5.637a.836.836 0 0 0 .543-.459.854.854 0 0 0-.001-.716L14.7.485A.832.832 0 0 0 13.946 0a.833.833 0 0 0-.754.487l-.814 1.766a.83.83 0 0 0-.09-.03C7.458.912 2.494 3.815 1.2 8.707-.094 13.6 2.772 18.627 7.6 19.94c4.83 1.31 9.794-1.593 11.088-6.485a9.248 9.248 0 0 0 .042-4.589.833.833 0 0 0-1.01-.614.845.845 0 0 0-.606 1.023 7.537 7.537 0 0 1-.035 3.743c-1.056 3.992-5.107 6.36-9.047 5.291-3.941-1.07-6.28-5.172-5.224-9.164 1.039-3.926 4.975-6.282 8.854-5.34l-.821 1.781a.853.853 0 0 0 .115.898c.208.252.54.359.852.275l4.195-1.12Z" fill="#0958CE"/></svg>