<svg width="80" height="80" viewBox="0 0 80 80" fill="none" xmlns="http://www.w3.org/2000/svg"><path d="m0 30 38.52 24.514c.44.325.96.485 1.48.485s1.04-.16 1.48-.485L80 30 41.5.5a2.505 2.505 0 0 0-3 0L0 30Z" fill="#64B5F6"/><path d="M65 0H15c-2.755 0-5 2.245-5 5v55a2.5 2.5 0 0 0 2.5 2.5h55A2.5 2.5 0 0 0 70 60V5c0-2.755-2.24-5-5-5Z" fill="#ECEFF1"/><path d="M22.5 15h35a2.5 2.5 0 0 0 0-5h-35a2.5 2.5 0 0 0 0 5Zm35 5h-35a2.5 2.5 0 0 0 0 5h35a2.5 2.5 0 0 0 0-5Zm-15 10h-20a2.5 2.5 0 0 0 0 5h20a2.5 2.5 0 0 0 0-5Z" fill="#90A4AE"/><path d="M41.48 54.515c-.44.325-.96.485-1.48.485s-1.04-.16-1.48-.485L0 30v45c0 2.76 2.24 5 5 5h70c2.76 0 5-2.24 5-5V30L41.48 54.515Z" fill="#1E88E5"/><path d="M75 80H5c-2.805 0-5-2.195-5-5 0-.795.38-1.545 1.02-2.015l37.5-25c.44-.325.96-.485 1.48-.485s1.04.16 1.48.485l37.5 25c.64.47 1.02 1.22 1.02 2.015 0 2.805-2.195 5-5 5Z" fill="#2196F3"/></svg>