<svg width="27" height="27" viewBox="0 0 27 27" fill="none" xmlns="http://www.w3.org/2000/svg"><path d="M23.192 0a3.12 3.12 0 0 0-3.115 3.115c0 .33.064.64.16.939L14.863 8.13a3.093 3.093 0 0 0-1.71-.516 3.09 3.09 0 0 0-2.057.795L6.179 5.697c.028-.165.052-.332.052-.505a3.12 3.12 0 0 0-3.116-3.115A3.12 3.12 0 0 0 0 5.192a3.12 3.12 0 0 0 3.115 3.116 3.09 3.09 0 0 0 2.058-.795l4.917 2.712a3.099 3.099 0 0 0-.051.506 3.12 3.12 0 0 0 3.115 3.115 3.12 3.12 0 0 0 3.115-3.115c0-.33-.064-.64-.16-.939l5.374-4.078a3.092 3.092 0 0 0 1.71.517 3.12 3.12 0 0 0 3.115-3.116A3.12 3.12 0 0 0 23.192 0Zm0 9.692a3.116 3.116 0 0 0-3.115 3.116v11.077a3.116 3.116 0 0 0 6.23 0V12.808a3.116 3.116 0 0 0-3.115-3.116ZM3.115 11.77A3.116 3.116 0 0 0 0 14.885v9a3.116 3.116 0 0 0 6.23 0v-9a3.116 3.116 0 0 0-3.115-3.116Zm10.039 5.539a3.116 3.116 0 0 0-3.115 3.115v3.462a3.116 3.116 0 0 0 6.23 0v-3.462a3.116 3.116 0 0 0-3.115-3.115Z" fill="#3D3D8D"/></svg>