<svg width="18" height="20" viewBox="0 0 18 20" fill="none" xmlns="http://www.w3.org/2000/svg"><path fill-rule="evenodd" clip-rule="evenodd" d="M8.049.208a1.65 1.65 0 0 1 1.602 0l7.2 4c.524.29.849.843.849 1.442v7.94c0 .6-.325 1.152-.849 1.443l-7.2 4a1.65 1.65 0 0 1-1.602 0l-7.2-4A1.65 1.65 0 0 1 0 13.591V5.65c0-.6.325-1.151.849-1.442l7.2-4Zm.874 1.31a.15.15 0 0 0-.146 0l-7.2 4a.15.15 0 0 0-.077.132v7.94c0 .055.03.105.077.132l7.2 4a.15.15 0 0 0 .146 0l7.2-4a.15.15 0 0 0 .077-.131V5.65a.15.15 0 0 0-.077-.131l-7.2-4Z" fill="#555"/><path fill-rule="evenodd" clip-rule="evenodd" d="M4.1 9.62a4.75 4.75 0 1 1 9.5 0 4.75 4.75 0 0 1-9.5 0Zm4.75-3.25a3.25 3.25 0 1 0 0 6.5 3.25 3.25 0 0 0 0-6.5Z" fill="#555"/></svg>