<svg width="20" height="20" viewBox="0 0 20 20" fill="none" xmlns="http://www.w3.org/2000/svg">
  <path d="M10 0C10.3853 0 10.6977 0.312359 10.6977 0.697674V1.62791C10.6977 2.01322 10.3853 2.32558 10 2.32558C9.61469 2.32558 9.30233 2.01322 9.30233 1.62791V0.697674C9.30233 0.312359 9.61469 0 10 0Z" fill="#D1D1D1"/>
  <path fill-rule="evenodd" clip-rule="evenodd" d="M4.65116 10C4.65116 7.04592 7.04592 4.65116 10 4.65116C12.9541 4.65116 15.3488 7.04592 15.3488 10C15.3488 12.9541 12.9541 15.3488 10 15.3488C7.04592 15.3488 4.65116 12.9541 4.65116 10ZM10 6.04651C7.81655 6.04651 6.04651 7.81655 6.04651 10C6.04651 12.1835 7.81655 13.9535 10 13.9535C12.1835 13.9535 13.9535 12.1835 13.9535 10C13.9535 7.81655 12.1835 6.04651 10 6.04651Z" fill="#D1D1D1"/>
  <path d="M3.91561 2.92895C3.64315 2.65649 3.2014 2.65649 2.92895 2.92895C2.65649 3.20141 2.65649 3.64316 2.92895 3.91561L3.58672 4.57339C3.85918 4.84585 4.30092 4.84585 4.57338 4.57339C4.84584 4.30093 4.84584 3.85919 4.57338 3.58673L3.91561 2.92895Z" fill="#D1D1D1"/>
  <path d="M20 10C20 10.3853 19.6876 10.6977 19.3023 10.6977H18.3721C17.9868 10.6977 17.6744 10.3853 17.6744 10C17.6744 9.61469 17.9868 9.30233 18.3721 9.30233H19.3023C19.6876 9.30233 20 9.61469 20 10Z" fill="#D1D1D1"/>
  <path d="M17.071 3.91561C17.3435 3.64315 17.3435 3.2014 17.071 2.92895C16.7986 2.65649 16.3568 2.65649 16.0844 2.92895L15.4266 3.58672C15.1542 3.85918 15.1542 4.30092 15.4266 4.57338C15.6991 4.84584 16.1408 4.84584 16.4133 4.57338L17.071 3.91561Z" fill="#D1D1D1"/>
  <path d="M10 17.6744C10.3853 17.6744 10.6977 17.9868 10.6977 18.3721V19.3023C10.6977 19.6876 10.3853 20 10 20C9.61469 20 9.30233 19.6876 9.30233 19.3023V18.3721C9.30233 17.9868 9.61469 17.6744 10 17.6744Z" fill="#D1D1D1"/>
  <path d="M16.4133 15.4266C16.1409 15.1542 15.6991 15.1542 15.4267 15.4266C15.1542 15.6991 15.1542 16.1408 15.4267 16.4133L16.0844 17.0711C16.3569 17.3435 16.7986 17.3435 17.0711 17.0711C17.3436 16.7986 17.3436 16.3569 17.0711 16.0844L16.4133 15.4266Z" fill="#D1D1D1"/>
  <path d="M2.32558 10C2.32558 10.3853 2.01322 10.6977 1.62791 10.6977H0.697674C0.312359 10.6977 0 10.3853 0 10C0 9.61469 0.31236 9.30233 0.697674 9.30233H1.62791C2.01322 9.30233 2.32558 9.61469 2.32558 10Z" fill="#D1D1D1"/>
  <path d="M4.57332 16.4133C4.84578 16.1408 4.84578 15.6991 4.57332 15.4266C4.30086 15.1542 3.85912 15.1542 3.58666 15.4266L2.92888 16.0844C2.65642 16.3569 2.65642 16.7986 2.92888 17.0711C3.20134 17.3435 3.64309 17.3435 3.91554 17.0711L4.57332 16.4133Z" fill="#D1D1D1"/>
</svg>
