<svg width="60" height="60" viewBox="0 0 60 60" fill="none" xmlns="http://www.w3.org/2000/svg">
<circle cx="30" cy="30" r="30" fill="#DDDDDD"/>
<path fill-rule="evenodd" clip-rule="evenodd" d="M19.0743 18.924C19.0743 12.8908 23.9651 8 29.9983 8C36.0314 8 40.9223 12.8908 40.9223 18.924C40.9223 24.9571 36.0314 29.8479 29.9983 29.8479C23.9651 29.8479 19.0743 24.9571 19.0743 18.924ZM12.1874 43.0025C16.177 37.1606 22.8739 33.6463 29.9982 33.6463C37.1225 33.6463 43.8194 37.1606 47.809 43.0025C48.6165 44.1424 49.0439 45.5675 48.9964 46.9924C48.9964 47.7523 48.3315 48.3699 47.5716 48.3699H12.4249C11.6649 48.3699 11 47.7523 11 46.9924C11 45.5675 11.38 44.1899 12.1874 43.0025Z" fill="white"/>
</svg>
