<svg width="80" height="81" viewBox="0 0 80 81" fill="none" xmlns="http://www.w3.org/2000/svg"><path fill-rule="evenodd" clip-rule="evenodd" d="M37.446.693A5.227 5.227 0 0 1 40 0c.87 0 1.746.224 2.52.68C79.88 23.394 79.931 24.27 80 25.435v.005c.044.776-2.513 3.028-10.161 9.767-1.6 1.41-3.423 3.016-5.492 4.846V27.88S55.142 22.663 40 22.663c-15.142 0-24.348 5.217-24.348 5.217v12.174a2102.96 2102.96 0 0 1-7.2-6.365H8.45v-.001l-1.432-1.27.006 6.466v.002c.005 5.197.01 10.393.015 12.119a3.483 3.483 0 0 1 1.657 2.962c0 .4-.075.801-.21 1.182 1.175.95 1.95 2.37 1.95 3.98 0 2.073-1.06 3.839-1.991 5.374-.93 1.529-1.855 2.71-1.855 2.71a1.758 1.758 0 0 1-1.379.666A1.728 1.728 0 0 1 3.84 67.2s-.924-1.196-1.848-2.738l-.035-.058C1.041 62.884.001 61.155.001 59.13c0-1.61.774-3.03 1.95-3.981a3.525 3.525 0 0 1-.211-1.182 3.48 3.48 0 0 1 1.705-2.99c-.007-2.887-.02-16.032-.02-21.358a1.55 1.55 0 0 1 .027-.353C.904 26.956-.027 25.937 0 25.448v-.005c.069-1.166.12-2.048 37.446-24.75ZM63.6 39.809c.435.19.7.285.747.245v.122c.924.183 2.038.591 3.024 1.474 1.453 1.305 2.194 3.24 2.194 5.747 0 3.913-2.378 7.201-5.686 8.098-6.468 16.297-14.49 24.558-23.872 24.558h-.014c-9.382 0-17.411-8.26-23.872-24.558-3.308-.89-5.686-4.185-5.686-8.098 0-2.506.74-4.442 2.194-5.747.986-.883 2.1-1.29 3.024-1.474v-.122c.047.04.278-.048.665-.224.57-.184 1.529-.47 2.813-.802v4.701l-1.93-.204s-1.358-.108-2.269.727c-.679.625-1.019 1.678-1.019 3.145 0 2.195 1.366 4.606 3.662 4.837l1.06.109.38.999c5.951 15.414 13.01 23.233 20.978 23.233h.014c7.968 0 15.027-7.82 20.978-23.233l.38-.999 1.06-.109c2.296-.23 3.662-2.642 3.662-4.837 0-1.48-.354-2.54-1.04-3.158-.897-.804-2.183-.718-2.246-.714h-.003l-1.929.204v-4.701c1.223.313 2.154.591 2.731.781Zm-44.47-.781c4.016-1.019 11.325-2.452 20.87-2.452 9.551 0 16.854 1.426 20.87 2.452v-8.947c-3.2-1.365-10.592-3.94-20.87-3.94-10.36 0-17.69 2.561-20.87 3.927v8.96ZM6.958 59.13c0-.931-.74-1.685-1.74-1.685-.998 0-1.738.754-1.738 1.685 0 .428.672 2.194 1.487 3.539.067.109.101.154.135.2.032.042.064.085.124.18.05-.075.08-.114.105-.15.037-.05.067-.09.14-.21.808-1.331 1.487-3.063 1.487-3.56Z" fill="#153E9A"/></svg>