<svg width="25" height="21" viewBox="0 0 25 21" fill="none" xmlns="http://www.w3.org/2000/svg"><path fill-rule="evenodd" clip-rule="evenodd" d="M6.216.273a72.558 72.558 0 0 1 12.568 0l2.005.174a4.167 4.167 0 0 1 3.76 3.531 40.632 40.632 0 0 1 0 12.084c-.053.35-.149.686-.282 1.001-.088.209-.36.24-.512.073l-5.871-6.458a.996.996 0 0 0-1.052-.275l-3.36 1.12L8.597 6.04a.996.996 0 0 0-1.448-.042L.624 12.52a.327.327 0 0 1-.56-.21 40.63 40.63 0 0 1 .388-8.333 4.167 4.167 0 0 1 3.76-3.53L6.215.273Zm8.94 5.764a1.992 1.992 0 1 1 3.983 0 1.992 1.992 0 0 1-3.983 0Z" fill="#2F69EC"/><path d="M.499 15.463a.33.33 0 0 0-.094.28c.015.107.03.213.047.32a4.167 4.167 0 0 0 3.76 3.53l2.004.175a72.55 72.55 0 0 0 12.568 0l2.005-.174a4.157 4.157 0 0 0 1.574-.46c.181-.096.212-.335.074-.487l-5.445-5.99a.332.332 0 0 0-.35-.09l-3.163 1.053a.996.996 0 0 1-1.06-.283L8.045 8.415a.332.332 0 0 0-.483-.014L.5 15.463Z" fill="#2F69EC"/></svg>